<?xml version="1.0" encoding="utf-8"?>
<!-- Generator: Adobe Illustrator 23.1.1, SVG Export Plug-In . SVG Version: 6.00 Build 0)  -->
<svg version="1.1" id="Calque_1" xmlns="http://www.w3.org/2000/svg" xmlns:xlink="http://www.w3.org/1999/xlink" x="0px" y="0px"
	 viewBox="0 0 64 80" style="enable-background:new 0 0 64 80;" xml:space="preserve">
<title>goals</title>
<g>
	<path d="M58,9h-3V6c0-0.6-0.4-1-1-1h-3c-0.6,0-1,0.4-1,1v6.6l-1.8,1.8C44.6,11,39.9,8.8,35,8.2V3c0-0.6-0.4-1-1-1h-4
		c-0.6,0-1,0.4-1,1v5.2C15.9,9.8,6.5,21.8,8.2,35C9.1,42,13,48.3,19,52.1l-2.8,5.8c-0.7,1.5-0.1,3.3,1.4,4c0.4,0.2,0.8,0.3,1.3,0.3
		c1.2,0,2.2-0.7,2.7-1.7l2.8-5.8c5,1.7,10.3,1.7,15.3,0l2.8,5.8c0.5,1,1.6,1.7,2.7,1.7c0.5,0,0.9-0.1,1.3-0.3c1.5-0.7,2.1-2.5,1.4-4
		L45,52.1c11.1-7.2,14.3-22,7.1-33.1c-0.7-1.1-1.6-2.2-2.5-3.2l1.8-1.8H58c0.6,0,1-0.4,1-1v-3C59,9.4,58.6,9,58,9z M31,8V4h2v4H31z
		 M19.8,59.6c-0.2,0.5-0.8,0.7-1.3,0.5c-0.5-0.2-0.7-0.8-0.5-1.3c0,0,0,0,0-0.1l2.7-5.6c0.6,0.3,1.2,0.6,1.8,0.9L19.8,59.6z
		 M46,58.8c0.2,0.5,0,1.1-0.5,1.3c-0.5,0.3-1.1,0.1-1.3-0.4c0,0,0,0,0-0.1L41.5,54c0.6-0.3,1.2-0.6,1.8-0.9L46,58.8z M54,32
		c0,12.2-9.8,22-22,22.1s-22-9.8-22.1-22s9.8-22,22-22.1c5.5,0,10.8,2,14.9,5.8l-1.4,1.4c-8.2-7.4-20.9-6.8-28.4,1.4
		S10.2,39.5,18.5,47s20.9,6.8,28.4-1.4c6.9-7.6,6.9-19.3,0-26.9l1.4-1.4C51.9,21.2,54,26.5,54,32z M38,32c0,3.3-2.7,6-6,6
		c-3.3,0-6-2.7-6-6s2.7-6,6-6c1.3,0,2.5,0.4,3.5,1.1L34,28.6c-0.6-0.4-1.3-0.6-2-0.6c-2.2,0-4,1.8-4,4s1.8,4,4,4s4-1.8,4-4
		c0-0.7-0.2-1.4-0.6-2l1.5-1.5C37.6,29.5,38,30.8,38,32z M34,32c0,1.1-0.9,2-2,2c-1.1,0-2-0.9-2-2c0-1.1,0.9-2,2-2
		c0.2,0,0.3,0,0.5,0.1l-1.2,1.2c-0.4,0.4-0.4,1,0,1.4c0.4,0.4,1,0.4,1.4,0c0,0,0,0,0,0l1.2-1.2C34,31.7,34,31.8,34,32z M36.9,25.7
		c-3.5-2.7-8.5-2.1-11.3,1.4s-2.1,8.5,1.4,11.3c3.5,2.7,8.5,2.1,11.3-1.4c2.3-2.9,2.3-7,0-9.9l1.4-1.4c3.5,4.3,2.9,10.6-1.4,14.1
		c-4.3,3.5-10.6,2.9-14.1-1.4s-2.9-10.6,1.4-14.1c3.7-3,9-3,12.7,0L36.9,25.7z M39.7,22.8c-5.1-4.3-12.7-3.7-16.9,1.4
		s-3.7,12.7,1.4,16.9s12.7,3.7,16.9-1.4c3.8-4.5,3.8-11.1,0-15.5l1.4-1.4c5.1,5.9,4.4,14.7-1.4,19.8s-14.7,4.4-19.8-1.4
		s-4.4-14.7,1.4-19.8c5.3-4.6,13.1-4.6,18.4,0L39.7,22.8z M42.6,20c-6.6-5.9-16.8-5.2-22.7,1.4s-5.2,16.8,1.4,22.7
		s16.8,5.2,22.7-1.4c5.4-6.1,5.4-15.2,0-21.2l1.4-1.4c6.7,7.4,6,18.9-1.4,25.5s-18.9,6-25.5-1.4s-6-18.9,1.4-25.5
		c6.9-6.1,17.2-6.1,24.1,0L42.6,20z M57,12h-5V7h1v3c0,0.6,0.4,1,1,1h3V12z"/>
</g>
</svg>
