<svg xmlns="http://www.w3.org/2000/svg" xmlns:xlink="http://www.w3.org/1999/xlink" version="1.1" x="0px" y="0px" viewBox="0 0 512 640" style="enable-background:new 0 0 512 512;" xml:space="preserve"><style type="text/css">
	.st0{display:none;}
	.st1{display:inline;fill:none;stroke:#000000;stroke-width:0.1;stroke-miterlimit:10;}
</style><g class="st0"><rect class="st1" width="512" height="512"/><line class="st1" x1="0" y1="496" x2="512" y2="496"/><line class="st1" x1="0" y1="480" x2="512" y2="480"/><line class="st1" x1="0" y1="464" x2="512" y2="464"/><line class="st1" x1="0" y1="448" x2="512" y2="448"/><line class="st1" x1="0" y1="432" x2="512" y2="432"/><line class="st1" x1="0" y1="416" x2="512" y2="416"/><line class="st1" x1="0" y1="400" x2="512" y2="400"/><line class="st1" x1="0" y1="384" x2="512" y2="384"/><line class="st1" x1="0" y1="368" x2="512" y2="368"/><line class="st1" x1="0" y1="352" x2="512" y2="352"/><line class="st1" x1="0" y1="336" x2="512" y2="336"/><line class="st1" x1="0" y1="320" x2="512" y2="320"/><line class="st1" x1="0" y1="304" x2="512" y2="304"/><line class="st1" x1="0" y1="288" x2="512" y2="288"/><line class="st1" x1="0" y1="272" x2="512" y2="272"/><line class="st1" x1="0" y1="256" x2="512" y2="256"/><line class="st1" x1="0" y1="240" x2="512" y2="240"/><line class="st1" x1="0" y1="224" x2="512" y2="224"/><line class="st1" x1="0" y1="208" x2="512" y2="208"/><line class="st1" x1="0" y1="192" x2="512" y2="192"/><line class="st1" x1="0" y1="176" x2="512" y2="176"/><line class="st1" x1="0" y1="160" x2="512" y2="160"/><line class="st1" x1="0" y1="144" x2="512" y2="144"/><line class="st1" x1="0" y1="128" x2="512" y2="128"/><line class="st1" x1="0" y1="112" x2="512" y2="112"/><line class="st1" x1="0" y1="96" x2="512" y2="96"/><line class="st1" x1="0" y1="80" x2="512" y2="80"/><line class="st1" x1="0" y1="64" x2="512" y2="64"/><line class="st1" x1="0" y1="48" x2="512" y2="48"/><line class="st1" x1="0" y1="32" x2="512" y2="32"/><line class="st1" x1="0" y1="16" x2="512" y2="16"/><line class="st1" x1="496" y1="0" x2="496" y2="512"/><line class="st1" x1="480" y1="0" x2="480" y2="512"/><line class="st1" x1="464" y1="0" x2="464" y2="512"/><line class="st1" x1="448" y1="0" x2="448" y2="512"/><line class="st1" x1="432" y1="0" x2="432" y2="512"/><line class="st1" x1="416" y1="0" x2="416" y2="512"/><line class="st1" x1="400" y1="0" x2="400" y2="512"/><line class="st1" x1="384" y1="0" x2="384" y2="512"/><line class="st1" x1="368" y1="0" x2="368" y2="512"/><line class="st1" x1="352" y1="0" x2="352" y2="512"/><line class="st1" x1="336" y1="0" x2="336" y2="512"/><line class="st1" x1="320" y1="0" x2="320" y2="512"/><line class="st1" x1="304" y1="0" x2="304" y2="512"/><line class="st1" x1="288" y1="0" x2="288" y2="512"/><line class="st1" x1="272" y1="0" x2="272" y2="512"/><line class="st1" x1="256" y1="0" x2="256" y2="512"/><line class="st1" x1="240" y1="0" x2="240" y2="512"/><line class="st1" x1="224" y1="0" x2="224" y2="512"/><line class="st1" x1="208" y1="0" x2="208" y2="512"/><line class="st1" x1="192" y1="0" x2="192" y2="512"/><line class="st1" x1="176" y1="0" x2="176" y2="512"/><line class="st1" x1="160" y1="0" x2="160" y2="512"/><line class="st1" x1="144" y1="0" x2="144" y2="512"/><line class="st1" x1="128" y1="0" x2="128" y2="512"/><line class="st1" x1="112" y1="0" x2="112" y2="512"/><line class="st1" x1="96" y1="0" x2="96" y2="512"/><line class="st1" x1="80" y1="0" x2="80" y2="512"/><line class="st1" x1="64" y1="0" x2="64" y2="512"/><line class="st1" x1="48" y1="0" x2="48" y2="512"/><line class="st1" x1="32" y1="0" x2="32" y2="512"/><line class="st1" x1="16" y1="0" x2="16" y2="512"/></g><g><g><path d="M366.9,359c-13.3,0-24-10.8-24-24c0-13.3,10.8-24,24-24c2.1,0,4.2,0.3,6.2,0.9c1.7-13.8,4.5-25.6,7.1-35.2    c-12.1-5.2-32.3-12-58.1-12.5c-29.2-0.6-52,7-64.8,12.4c-12.7-5.4-35.5-13-64.8-12.4c-25.8,0.5-46,7.3-58.1,12.5    c2.7,9.5,5.3,21.1,7,34.7c1.3-0.2,2.5-0.3,3.8-0.3c13.3,0,24,10.8,24,24c0,13.3-10.8,24-24,24c-0.9,0-1.6-0.1-2.5-0.2    c-1.4,18.9-4.8,34.9-8.3,47.1c10-5.5,31-15.4,59.3-15.9c30.4-0.5,53,10.1,63.4,15.7c0,0.1,0,0.2,0,0.2c0.1,0,0.2-0.1,0.2-0.1    l0.2,0.1c0-0.1,0-0.2,0-0.2c10.3-5.6,32.9-16.2,63.4-15.7c28.3,0.5,49.3,10.4,59.3,15.9c-3.4-12.3-7-28.4-8.3-47.5    C370.2,358.9,368.6,359,366.9,359z"/><circle cx="366.7" cy="335.1" r="20"/><circle cx="145.3" cy="335.1" r="20"/></g><g><path d="M232.8,244c-13.7,3.1-26.4,8.9-37.5,16.7c27.7,0.6,49.5,6.4,62,11.7c12.4-5.2,33.8-11,61.3-11.7    c-11.2-7.8-23.8-13.6-37.6-16.7c27.4-9.8,47-36.1,47-67c0-39.3-31.9-71.1-71.1-71.1s-71.1,31.9-71.1,71.1    C185.8,208,205.4,234.2,232.8,244z"/></g></g><path d="M256,506c-66.8,0-129.6-26-176.8-73.2S6,322.8,6,256S32,126.4,79.2,79.2S189.2,6,256,6s129.6,26,176.8,73.2  S506,189.2,506,256s-26,129.6-73.2,176.8S322.8,506,256,506z M256,22C127,22,22,127,22,256s105,234,234,234s234-105,234-234  S385,22,256,22z"/><text x="0" y="527" fill="#000000" font-size="5px" font-weight="bold" font-family="'Helvetica Neue', Helvetica, Arial-Unicode, Arial, Sans-serif">Created by SBTS</text><text x="0" y="532" fill="#000000" font-size="5px" font-weight="bold" font-family="'Helvetica Neue', Helvetica, Arial-Unicode, Arial, Sans-serif">from the Noun Project</text></svg>