<?xml version="1.0" encoding="utf-8"?>
<!-- Generator: Adobe Illustrator 23.1.1, SVG Export Plug-In . SVG Version: 6.00 Build 0)  -->
<svg version="1.1" id="Calque_1" xmlns="http://www.w3.org/2000/svg" xmlns:xlink="http://www.w3.org/1999/xlink" x="0px" y="0px"
	 viewBox="0 0 66 82.5" style="enable-background:new 0 0 66 82.5;" xml:space="preserve">
<g>
	<path d="M40.3,35.6c-0.2,1.1-0.7,2.1-1.4,3c1.1,1.8,2.1,4.1,2.5,6.7l0,0c1.4,2.1,1.5,4.1,0,6.5c-0.5,3-1.7,6.2-3.9,9.7
		c1.1,0.7,2.5,0.6,3.5-0.2C52.3,52.6,50.9,42.6,40.3,35.6z"/>
	<path d="M27,6.8C27,3.6,24.3,1,21.1,1s-5.8,2.6-5.8,5.8s2.6,5.8,5.8,5.8C24.3,12.7,27,10,27,6.8z"/>
	<path d="M37.5,38.6c3.9-3.6,1-7.6-0.4-9.7l-2.5,2.6c0,0.1,0.1,0.1,0.3,0.1c0.4,0,2.4-0.6,2.5,1.5c0,1.6-1.5,2.3-2.9,2.7
		c-1.1,0.3-1.2,1.7-1.2,1.7c-0.4,1.6-0.5,2.6-1.3,3.8c0,0.1-0.1,0.1-0.1,0.2c1.9,2.5,5.2,9.1-2.4,18.3c-1.1,1.3-0.9,3.4,0.4,4.5
		c1.3,1.1,3.3,1,4.5-0.4c2.5-3,4.6-6.4,5.6-10.2C41.5,48.2,40.4,42.9,37.5,38.6z"/>
	<path d="M50.6,13.5c-0.6-0.3-1-0.7-1.3-1.3c0-0.1-0.1-0.1-0.2,0c-0.7,0.7-2.1,1.9-3.1,2c0,0-0.1,0.1,0,0.3c0,0,0.2,0.8-0.3,1.3
		C45.6,15.9,33,28.3,32.1,29.2c-0.1,0.1-0.3,0.1-0.4,0.1c-0.3-0.2-0.7-0.7-0.4-2.1c0,0,0.2-0.5,0.8-1.2c0,0,0.4-0.5-0.4-0.8
		c0,0-0.9-0.2-1.7,0.7c0,0-0.9,1.1-1.1,1.9c0,0-0.5,1.9-2.1,2.5c0,0-0.6,0.3-1.7,0.5c0.4,0,0.8,0.1,1.3,0c1.7-0.1,3.2,1.3,3.3,3.1
		c0.1,1.5-1,2.9-2.4,3.2c-1.9,0.4-5.2-0.1-7.4-1.6c-0.1,1.2,0.3,2.7,1.8,4.4c0,0,2.3,3.2,5.7,3.2c0.1-0.1,3.3-0.1,4.3-3.7l0.5-1.9
		c0,0,0.1-2.2,2-2.7c0,0,2-0.4,2.1-1.6c0,0,0-0.7-0.6-0.7c0,0-2,0.7-2.2-1.1c0-0.2,0-0.4,0.1-0.5c14.4-15-10.4,10.8,13.2-13.7
		c0,0,0.8-0.8,1.6-0.4c0,0,0.1,0,0.2-0.2l0.1-0.3c0,0,0.6-1.3,1.9-2.6C50.7,13.7,50.7,13.6,50.6,13.5z"/>
	<path d="M26.7,36.1c1.2,0,2.1-1,2-2.2c0-1.2-1-2.1-2.2-2c-3.2,0.1-4-1.1-4.2-1.5c-0.7-1-0.8-2.7-0.6-4.5c0.7,1.7,1.2,3,1.7,4.1
		c0.1,0,3-0.8,3.1-0.8c1.1-0.4,1.5-1.8,1.5-1.8c0.2-0.9,1.1-2,1.3-2.3c1.2-1.4,3.6-1.5,4,0.2c0.1,0.6-0.1,1-0.4,1.3
		c-0.3,0.4-0.5,0.6-0.6,0.8c0,0,0,0,0,0.1l2.7-2.7c-0.7-1.6-1.4-3.3-2-4.9l4.6,2.3l3.2-3.1c-11-5.2-12.7-7.5-16.3-6.5
		c-1.8,0.5-3.2,1.7-4,3.2c-1.4,2.1-5,11.9-1.7,16.9C20.5,35.4,23.6,36.3,26.7,36.1z"/>
</g>
</svg>
